<svg width="24" height="24" viewBox="0 0 24 24" fill="none" xmlns="http://www.w3.org/2000/svg">
<path fill-rule="evenodd" clip-rule="evenodd" d="M13.458 9.12201L20.974 1.15701H23.465L23.455 1.16801L14.565 10.592L22.704 21.394C22.8023 21.5241 22.8637 21.6783 22.8817 21.8403C22.8997 22.0024 22.8736 22.1663 22.8062 22.3147C22.7389 22.4632 22.6327 22.5907 22.4989 22.6839C22.3651 22.777 22.2086 22.8324 22.046 22.844H16.95C16.8208 22.8351 16.695 22.7984 16.5813 22.7365C16.4675 22.6745 16.3685 22.5887 16.291 22.485L10.564 14.884L3.09197 22.844H0.534973L9.45697 13.414L1.31797 2.61201C1.21637 2.47747 1.15432 2.31725 1.13881 2.14937C1.1233 1.98149 1.15494 1.81261 1.23017 1.66173C1.3054 1.51085 1.42124 1.38396 1.56466 1.29532C1.70807 1.20669 1.87338 1.15983 2.04197 1.16001H7.00697C7.29197 1.16001 7.55997 1.29401 7.73097 1.52101L13.458 9.12201ZM12.695 11.122C12.6699 11.0924 12.6465 11.0613 12.625 11.029L6.55497 2.97301H3.85997L17.467 21.033H20.163L12.695 11.122Z" fill="black"/>
</svg>
